PathFileType	4	(X/Y/Z)	C:/Users/opensim2020/Desktop/walking_exp_matlab/subject06_walking19_straight_04.trc																																																																																																																																																	
DataRate	CameraRate	NumFrames	NumMarkers	Units	OrigDataRate	OrigDataStartFrame	OrigNumFrames																																																																																																																																													
100	100	8	49	mm	100	4756	340																																																																																																																																													
Frame#	Time	LFHD			RFHD			LBHD			RBHD			C7			T10			CLAV			STRN			RBAK			LSHO			LUPA			LELB			LFRM			LWRA			LWRB			LFIN			RSHO			RUPA			RELB			RFRM			RWRA			RWRB			RFIN			LASI			RASI			LPSI			RPSI			LTHI			LKNE			LTIB			LANK			LHEE			LTOE			RTHI			RKNE			RTIB			RANK			RHEE			RTOE			*39			*40			*41			*42			*43			*44			*45			*46			*47			*48		
		X1	Y1	Z1	X2	Y2	Z2	X3	Y3	Z3	X4	Y4	Z4	X5	Y5	Z5	X6	Y6	Z6	X7	Y7	Z7	X8	Y8	Z8	X9	Y9	Z9	X10	Y10	Z10	X11	Y11	Z11	X12	Y12	Z12	X13	Y13	Z13	X14	Y14	Z14	X15	Y15	Z15	X16	Y16	Z16	X17	Y17	Z17	X18	Y18	Z18	X19	Y19	Z19	X20	Y20	Z20	X21	Y21	Z21	X22	Y22	Z22	X23	Y23	Z23	X24	Y24	Z24	X25	Y25	Z25	X26	Y26	Z26	X27	Y27	Z27	X28	Y28	Z28	X29	Y29	Z29	X30	Y30	Z30	X31	Y31	Z31	X32	Y32	Z32	X33	Y33	Z33	X34	Y34	Z34	X35	Y35	Z35	X36	Y36	Z36	X37	Y37	Z37	X38	Y38	Z38	X39	Y39	Z39	X40	Y40	Z40	X41	Y41	Z41	X42	Y42	Z42	X43	Y43	Z43	X44	Y44	Z44	X45	Y45	Z45	X46	Y46	Z46	X47	Y47	Z47	X48	Y48	Z48	X49	Y49	Z49
																																																																																																																																																				
213	2.12	72.07393	1639.17297	971.77838	78.52749	1629.16089	1103.23242	-60.09063	1582.38025	978.16681	-51.78007	1577.62244	1107.68359	-57.05713	1427.87231	1036.94385	-93.21876	1099.16968	1051.54846	50.81553	1348.63159	1033.94373	87.89902	1173.00806	1032.7301	-128.89551	1260.89429	1125.55359	-12.32729	1377.50122	873.84692	-56.13033	1181.39368	805.55341	-85.74531	1073.19861	795.83551	-92.65298	922.90839	772.10736	-52.8099	798.70886	810.1377	-116.04444	805.5553	776.69812	-91.44979	717.68524	774.1817	15.9609	1384.30884	1196.71997	-17.95905	1188.94861	1293.14172	-6.57484	1067.33801	1306.16699	29.98079	953.06891	1316.05444	113.07628	831.9624	1269.71509	65.00156	820.47174	1314.87964	115.80704	753.17285	1308.05554	87.29112	944.66107	936.49554	80.46275	937.95111	1157.10229	-71.3589	969.88202	957.75317	-69.82355	970.12585	1126.88171	83.51465	639.30652	860.86877	137.95695	488.59335	887.61389	171.85048	234.82446	884.16565	218.30359	65.96616	920.53461	182.2944	40.81062	963.99835	363.97345	71.22884	935.50189	-34.98536	610.98358	1192.81274	-64.73986	487.64273	1170.28687	-198.26674	251.55263	1162.31616	-271.37817	79.8548	1111.5896	-316.1904	62.63553	1066.78528	-124.4323	30.97874	1108.62781	-25.70652	1675.86609	1035.54517	NaN	NaN	NaN	NaN	NaN	NaN	NaN	NaN	NaN	NaN	NaN	NaN	NaN	NaN	NaN	NaN	NaN	NaN	NaN	NaN	NaN	NaN	NaN	NaN	NaN	NaN	NaN
214	2.13	79.2317	1638.31116	970.20203	85.35509	1628.33594	1101.77588	-52.90492	1581.32825	976.29242	-44.53968	1576.46448	1105.36157	-50.29836	1426.90967	1035.42798	-84.82379	1097.87122	1049.94092	58.15544	1347.77661	1032.42798	95.80427	1172.22485	1031.42346	-121.5351	1259.52539	1123.7467	-4.99625	1376.20752	872.17059	-48.61257	1180.00073	804.19458	-78.51708	1071.80981	794.69141	-85.30479	921.43787	771.05591	-45.36811	797.29163	808.92828	-108.90243	804.16144	775.89417	-84.32912	716.31659	773.43054	22.93583	1383.38403	1195.13074	-11.04564	1188.07251	1291.6958	0.36539	1066.4408	1304.91406	36.70673	952.07739	1315.01746	119.4584	830.65857	1269.00732	71.14921	819.43176	1314.30701	121.90149	751.94769	1307.51111	95.90155	943.76605	935.40607	88.52462	936.82697	1156.01282	-62.82705	969.10736	955.99335	-61.62899	969.10474	1125.32166	92.31447	638.58917	859.27441	146.22836	487.89771	885.63965	177.21033	233.66762	883.85852	220.2085	64.95708	920.25739	184.20074	41.96717	964.61096	366.81015	63.30082	934.25269	-28.37532	610.16461	1191.65027	-58.88847	487.01651	1169.40601	-195.31587	252.45473	1161.94019	-270.60489	81.50586	1111.85388	-315.23654	64.4836	1067.24927	-124.34908	30.89808	1108.51111	-18.78207	1674.87952	1033.74084	NaN	NaN	NaN	NaN	NaN	NaN	NaN	NaN	NaN	NaN	NaN	NaN	NaN	NaN	NaN	NaN	NaN	NaN	NaN	NaN	NaN	NaN	NaN	NaN	NaN	NaN	NaN
215	2.14	86.37852	1637.99548	968.60724	92.2632	1627.9967	1100.2063	-45.60823	1580.62036	974.36401	-38.07403	1575.95728	1104.03748	-43.13243	1426.41333	1033.65173	-76.53546	1096.91394	1048.50439	65.56348	1347.33862	1030.85156	103.52781	1171.79224	1030.12427	-114.22512	1258.43188	1121.63757	2.46858	1375.14441	870.36346	-40.95897	1178.7616	802.77045	-70.83221	1070.57703	793.41083	-77.68623	920.22552	770.05566	-37.87101	796.05859	807.9585	-101.4342	802.95892	774.83777	-76.6995	715.03864	772.55347	29.9014	1382.74609	1193.61597	-4.03036	1187.29675	1290.2168	7.32983	1065.6842	1303.65027	43.39097	951.23956	1313.92883	125.8385	829.46124	1268.26099	77.50493	818.4212	1313.44434	128.02827	750.87189	1306.94666	104.48008	943.25726	934.24347	96.77194	935.81189	1154.85303	-54.26649	968.87341	954.42834	-53.2263	968.37524	1123.82336	100.82991	638.51477	857.78729	153.61072	487.61298	883.84302	182.62616	233.40848	883.58514	223.13068	64.45876	919.43353	186.35564	43.17456	964.0246	369.76273	57.70157	933.76709	-21.52566	609.4809	1190.37476	-52.77457	486.49423	1168.18359	-191.98462	253.64444	1161.41394	-269.66776	83.57105	1112.27063	-314.56036	67.16739	1067.92444	-124.17082	30.92244	1108.55872	-11.9029	1674.25903	1031.92102	NaN	NaN	NaN	NaN	NaN	NaN	NaN	NaN	NaN	NaN	NaN	NaN	NaN	NaN	NaN	NaN	NaN	NaN	NaN	NaN	NaN	NaN	NaN	NaN	NaN	NaN	NaN
216	2.15	93.51537	1638.10925	966.94867	99.06425	1628.09863	1098.54468	-38.31957	1580.42444	972.38892	-30.55862	1575.56641	1101.53455	-35.79136	1426.45435	1031.7821	-68.12992	1096.38464	1047.11462	72.89995	1347.35486	1029.302	111.27129	1171.75989	1028.80127	-106.63873	1257.76599	1119.44495	10.0173	1374.41406	868.52374	-33.05531	1177.79773	801.28241	-63.06575	1069.55957	792.0481	-69.84471	919.01709	769.16309	-29.92782	795.0401	806.95532	-93.16202	801.77557	774.03497	-68.82754	714.08789	771.57153	36.92136	1382.46375	1192.19055	3.09706	1186.83337	1288.73718	14.4546	1065.24719	1302.29492	50.06143	950.60199	1312.729	132.18929	828.48218	1267.53027	83.50095	817.71405	1312.63831	133.94017	749.99664	1306.38037	113.0566	943.19818	932.96539	105.13608	935.04376	1153.51208	-45.85387	969.28217	952.94049	-44.69191	968.03882	1122.46765	109.0191	639.29059	856.20227	160.80801	487.93234	882.07123	187.81569	233.78232	882.46204	225.87819	64.06811	918.81616	188.59805	44.28123	963.43439	372.32242	53.66095	933.0769	-14.22317	609.05853	1189.06189	-46.12969	486.14539	1166.82642	-188.28276	255.17711	1160.90222	-268.45309	86.13676	1112.66638	-314.05185	70.69005	1068.4397	-124.38564	30.7504	1108.66565	-5.09069	1674.21362	1030.02148	NaN	NaN	NaN	NaN	NaN	NaN	NaN	NaN	NaN	NaN	NaN	NaN	NaN	NaN	NaN	NaN	NaN	NaN	NaN	NaN	NaN	NaN	NaN	NaN	NaN	NaN	NaN
217	2.16	100.7457	1638.50305	965.26941	106.00093	1628.47229	1096.82397	-31.08512	1580.66028	970.37311	-24.12326	1576.01147	1100.0061	-28.44094	1426.60645	1029.94055	-59.81932	1096.32397	1045.84949	80.18248	1347.7063	1027.75159	119.10246	1172.15466	1027.30872	-99.10069	1257.55664	1117.53333	17.60234	1374.09399	866.7392	-24.98074	1177.19214	799.81323	-54.83141	1068.84692	790.62286	-61.51737	918.31104	767.84973	-21.98584	794.41333	806.13483	-85.18427	801.16467	772.84283	-60.52728	713.47083	770.55975	44.12284	1382.61511	1190.78406	10.2067	1186.81787	1286.88525	21.62682	1065.18457	1300.79541	56.81602	950.35327	1311.40356	138.40456	827.80145	1266.81763	89.31528	817.22711	1311.49243	139.63112	749.49585	1305.95923	121.62246	943.74695	931.45581	113.27018	934.56891	1151.69763	-37.62101	970.16937	951.74939	-36.06859	967.93384	1121.2843	116.975	640.44299	854.93237	168.42708	488.75244	880.53595	192.36336	234.11896	881.21411	227.88455	63.9188	918.22961	190.20988	45.20864	963.08521	374.17145	49.88066	932.38086	-6.51165	608.91882	1187.59387	-38.77048	486.1073	1165.36865	-184.30582	257.18481	1160.41809	-267.06216	89.09247	1113.06262	-312.38101	73.84437	1068.86206	-124.26326	30.68617	1108.6322	1.9659	1674.46313	1028.06628	NaN	NaN	NaN	NaN	NaN	NaN	NaN	NaN	NaN	NaN	NaN	NaN	NaN	NaN	NaN	NaN	NaN	NaN	NaN	NaN	NaN	NaN	NaN	NaN	NaN	NaN	NaN
218	2.17	108.04213	1639.00732	963.492	113.06615	1629.10193	1095.07886	-23.71239	1581.22498	968.37518	-16.59764	1576.47583	1097.45337	-21.07873	1426.9978	1028.04517	-51.63241	1096.80786	1044.65442	87.5723	1348.38599	1026.19519	127.0399	1172.92371	1025.76501	-91.48677	1257.71228	1115.82153	25.20406	1374.22913	865.10211	-16.6683	1177.07397	798.31116	-46.23199	1068.64441	789.11725	-52.75582	918.06067	766.26215	-13.2775	794.16864	805.10022	-76.42864	800.89026	771.57068	-51.74245	713.2229	769.35724	51.42105	1383.23877	1189.30334	17.22617	1187.23792	1285.01831	28.99017	1065.64209	1299.07898	63.52647	950.54553	1310.00415	144.50583	827.45416	1266.03162	95.26694	817.18182	1310.38684	145.21121	749.31616	1305.42627	130.09584	944.81659	929.6377	122.20094	934.67322	1150.0072	-29.52595	971.17023	950.71509	-27.87393	968.32294	1120.16443	124.89984	641.75983	853.8512	176.07162	489.66565	879.29388	196.7737	234.34782	880.16504	229.18817	63.61322	917.8299	191.16405	45.83599	962.66516	375.24615	46.45873	932.11877	1.40447	609.1391	1186.05774	-31.03024	486.3989	1164.02734	-180.05429	259.50238	1160.01221	-265.41394	92.50564	1113.57361	-311.48169	78.57441	1069.81812	-124.13326	30.63401	1108.61633	9.11217	1675.08752	1026.11987	NaN	NaN	NaN	NaN	NaN	NaN	NaN	NaN	NaN	NaN	NaN	NaN	NaN	NaN	NaN	NaN	NaN	NaN	NaN	NaN	NaN	NaN	NaN	NaN	NaN	NaN	NaN
219	2.18	115.37895	1639.74231	961.65698	120.08367	1629.97253	1093.23584	-16.56364	1582.10718	966.43896	-9.40568	1577.46362	1095.45081	-13.9913	1427.55334	1026.54822	-43.43485	1097.56897	1043.34985	94.85838	1349.28748	1024.64136	135.08168	1173.96631	1024.2019	-83.69012	1258.18286	1114.37061	32.75442	1374.82544	863.57056	-8.21751	1177.36438	796.87158	-37.33862	1068.80005	787.67657	-43.35688	918.16833	765.33856	-4.35043	794.33472	803.93042	-67.18653	801.01764	770.02411	-42.52748	713.38232	768.03723	58.70618	1384.28723	1187.74805	24.14938	1188.09204	1283.03601	36.44976	1066.51904	1297.19556	70.33727	951.21539	1308.43848	150.49585	827.43506	1265.22119	101.03284	817.69464	1309.52905	150.50575	749.51379	1304.97546	138.3511	946.13965	927.69049	130.79721	935.13379	1147.87781	-21.289	972.40234	949.52972	-19.13364	968.85681	1118.82678	132.66258	642.94995	852.77032	183.43552	490.52118	878.16718	200.93466	234.43921	879.51752	230.33374	63.42058	917.88257	190.97787	47.03171	962.66583	376.18698	44.6258	931.94727	10.3413	609.3291	1183.92798	-22.93303	486.96753	1162.66724	-175.4176	262.17059	1159.70422	-263.43839	96.23585	1114.21655	-309.90582	83.38157	1070.58228	-123.99407	30.61352	1108.61731	16.36867	1675.94897	1024.05212	NaN	NaN	NaN	NaN	NaN	NaN	NaN	NaN	NaN	NaN	NaN	NaN	NaN	NaN	NaN	NaN	NaN	NaN	NaN	NaN	NaN	NaN	NaN	NaN	NaN	NaN	NaN
220	2.19	122.58835	1640.82947	959.76227	127.14784	1631.13879	1091.3988	-9.3843	1583.20349	964.46204	-2.51813	1578.74878	1093.56982	-6.83256	1428.46606	1024.96277	-35.15698	1098.49377	1041.89417	102.409	1350.51221	1023.039	143.13734	1175.26172	1022.62622	-75.7145	1258.875	1112.82556	40.02717	1375.78479	862.02307	0.27591	1178.07056	795.39026	-28.16268	1069.39856	786.18921	-33.8645	918.78784	763.49658	5.14027	794.92944	802.71075	-57.29526	801.60822	768.39734	-32.81822	713.91449	766.59302	66.14275	1385.64661	1186.104	31.77158	1189.4071	1281.1427	43.90897	1067.78552	1295.19702	77.07206	952.26013	1306.82935	156.44812	827.73376	1264.33215	106.60925	818.4342	1308.39966	155.74545	749.97113	1304.33752	146.51039	947.59406	925.59021	139.50435	935.95825	1145.56384	-12.9688	973.71326	948.13544	-10.36362	969.69849	1117.27063	140.17531	644.08722	851.71027	190.17203	491.15427	877.63196	204.63489	234.72194	879.43793	231.60504	63.51482	918.14197	191.57272	47.56978	962.88184	377.17175	43.56774	932.27301	18.52777	610.07391	1182.79944	-14.21611	487.58762	1161.44812	-170.60774	265.31155	1159.33618	-260.91818	100.25621	1114.87585	-307.64832	88.51736	1071.35242	-123.70174	30.55555	1108.58728	23.54112	1677.08325	1021.98285	NaN	NaN	NaN	NaN	NaN	NaN	NaN	NaN	NaN	NaN	NaN	NaN	NaN	NaN	NaN	NaN	NaN	NaN	NaN	NaN	NaN	NaN	NaN	NaN	NaN	NaN	NaN
